<svg width="32" height="32" viewBox="0 0 32 32" fill="none" xmlns="http://www.w3.org/2000/svg">
<path d="M3.33331 26.6667C2.78331 26.6667 2.31248 26.4709 1.92081 26.0792C1.52915 25.6875 1.33331 25.2167 1.33331 24.6667V9.33337H3.33331V24.6667H26.6666V26.6667H3.33331ZM7.33331 22.6667C6.78331 22.6667 6.31248 22.4709 5.92081 22.0792C5.52915 21.6875 5.33331 21.2167 5.33331 20.6667V7.33337C5.33331 6.78337 5.52915 6.31254 5.92081 5.92087C6.31248 5.52921 6.78331 5.33337 7.33331 5.33337H28.6666C29.2166 5.33337 29.6875 5.52921 30.0791 5.92087C30.4708 6.31254 30.6666 6.78337 30.6666 7.33337V20.6667C30.6666 21.2167 30.4708 21.6875 30.0791 22.0792C29.6875 22.4709 29.2166 22.6667 28.6666 22.6667H7.33331ZM10.6666 20.6667C10.6666 19.7334 10.3444 18.9445 9.69998 18.3C9.05554 17.6556 8.26665 17.3334 7.33331 17.3334V20.6667H10.6666ZM25.3333 20.6667H28.6666V17.3334C27.7333 17.3334 26.9444 17.6556 26.3 18.3C25.6555 18.9445 25.3333 19.7334 25.3333 20.6667ZM18 18C19.1111 18 20.0555 17.6112 20.8333 16.8334C21.6111 16.0556 22 15.1112 22 14C22 12.8889 21.6111 11.9445 20.8333 11.1667C20.0555 10.3889 19.1111 10 18 10C16.8889 10 15.9444 10.3889 15.1666 11.1667C14.3889 11.9445 14 12.8889 14 14C14 15.1112 14.3889 16.0556 15.1666 16.8334C15.9444 17.6112 16.8889 18 18 18ZM7.33331 10.6667C8.26665 10.6667 9.05554 10.3445 9.69998 9.70004C10.3444 9.0556 10.6666 8.26671 10.6666 7.33337H7.33331V10.6667ZM28.6666 10.6667V7.33337H25.3333C25.3333 8.26671 25.6555 9.0556 26.3 9.70004C26.9444 10.3445 27.7333 10.6667 28.6666 10.6667Z" fill="#EE3311"/>
</svg>
