<svg width="94" height="25" viewBox="0 0 94 25" fill="none" xmlns="http://www.w3.org/2000/svg">
<path d="M16.496 8.57601C16.496 9.77067 16.208 10.8907 15.632 11.936C15.0773 12.9813 14.192 13.824 12.976 14.464C11.7813 15.104 10.2667 15.424 8.43201 15.424H4.68801V24H0.208008V1.66401H8.43201C10.16 1.66401 11.632 1.96267 12.848 2.56001C14.064 3.15734 14.9707 3.97867 15.568 5.02401C16.1867 6.06934 16.496 7.25334 16.496 8.57601ZM8.24001 11.808C9.47734 11.808 10.3947 11.5307 10.992 10.976C11.5893 10.4 11.888 9.60001 11.888 8.57601C11.888 6.40001 10.672 5.31201 8.24001 5.31201H4.68801V11.808H8.24001Z" fill="#EBE7E6"/>
<path d="M37.7568 14.752C37.7568 15.392 37.7141 15.968 37.6288 16.48H24.6688C24.7754 17.76 25.2234 18.7627 26.0128 19.488C26.8021 20.2133 27.7728 20.576 28.9248 20.576C30.5888 20.576 31.7728 19.8613 32.4768 18.432H37.3088C36.7968 20.1387 35.8154 21.5467 34.3648 22.656C32.9141 23.744 31.1328 24.288 29.0208 24.288C27.3141 24.288 25.7781 23.9147 24.4128 23.168C23.0688 22.4 22.0128 21.3227 21.2448 19.936C20.4981 18.5493 20.1248 16.9493 20.1248 15.136C20.1248 13.3013 20.4981 11.6907 21.2448 10.304C21.9914 8.91734 23.0368 7.85067 24.3808 7.10401C25.7248 6.35734 27.2714 5.98401 29.0208 5.98401C30.7061 5.98401 32.2101 6.34667 33.5328 7.07201C34.8768 7.79734 35.9114 8.83201 36.6368 10.176C37.3834 11.4987 37.7568 13.024 37.7568 14.752ZM33.1168 13.472C33.0954 12.32 32.6794 11.4027 31.8688 10.72C31.0581 10.016 30.0661 9.66401 28.8928 9.66401C27.7834 9.66401 26.8448 10.0053 26.0768 10.688C25.3301 11.3493 24.8714 12.2773 24.7008 13.472H33.1168Z" fill="#EBE7E6"/>
<path d="M41.4748 15.072C41.4748 13.28 41.8268 11.6907 42.5308 10.304C43.2561 8.91734 44.2374 7.85067 45.4748 7.10401C46.7121 6.35734 48.0881 5.98401 49.6028 5.98401C50.7548 5.98401 51.8534 6.24001 52.8988 6.75201C53.9441 7.24267 54.7761 7.90401 55.3948 8.73601V0.320007H59.9388V24H55.3948V21.376C54.8401 22.2507 54.0614 22.9547 53.0588 23.488C52.0561 24.0213 50.8934 24.288 49.5708 24.288C48.0774 24.288 46.7121 23.904 45.4748 23.136C44.2374 22.368 43.2561 21.2907 42.5308 19.904C41.8268 18.496 41.4748 16.8853 41.4748 15.072ZM55.4268 15.136C55.4268 14.048 55.2134 13.12 54.7868 12.352C54.3601 11.5627 53.7841 10.9653 53.0588 10.56C52.3334 10.1333 51.5548 9.92001 50.7228 9.92001C49.8908 9.92001 49.1228 10.1227 48.4188 10.528C47.7148 10.9333 47.1388 11.5307 46.6908 12.32C46.2641 13.088 46.0508 14.0053 46.0508 15.072C46.0508 16.1387 46.2641 17.0773 46.6908 17.888C47.1388 18.6773 47.7148 19.2853 48.4188 19.712C49.1441 20.1387 49.9121 20.352 50.7228 20.352C51.5548 20.352 52.3334 20.1493 53.0588 19.744C53.7841 19.3173 54.3601 18.72 54.7868 17.952C55.2134 17.1627 55.4268 16.224 55.4268 15.136Z" fill="#EBE7E6"/>
<path d="M64.7623 15.072C64.7623 13.28 65.1143 11.6907 65.8183 10.304C66.5436 8.91734 67.5143 7.85067 68.7303 7.10401C69.9676 6.35734 71.3436 5.98401 72.8583 5.98401C74.1809 5.98401 75.3329 6.25067 76.3143 6.78401C77.3169 7.31734 78.1169 7.98934 78.7143 8.80001V6.27201H83.2263V24H78.7143V21.408C78.1383 22.24 77.3383 22.9333 76.3143 23.488C75.3116 24.0213 74.1489 24.288 72.8263 24.288C71.3329 24.288 69.9676 23.904 68.7303 23.136C67.5143 22.368 66.5436 21.2907 65.8183 19.904C65.1143 18.496 64.7623 16.8853 64.7623 15.072ZM78.7143 15.136C78.7143 14.048 78.5009 13.12 78.0743 12.352C77.6476 11.5627 77.0716 10.9653 76.3463 10.56C75.6209 10.1333 74.8423 9.92001 74.0103 9.92001C73.1783 9.92001 72.4103 10.1227 71.7063 10.528C71.0023 10.9333 70.4263 11.5307 69.9783 12.32C69.5516 13.088 69.3383 14.0053 69.3383 15.072C69.3383 16.1387 69.5516 17.0773 69.9783 17.888C70.4263 18.6773 71.0023 19.2853 71.7063 19.712C72.4316 20.1387 73.1996 20.352 74.0103 20.352C74.8423 20.352 75.6209 20.1493 76.3463 19.744C77.0716 19.3173 77.6476 18.72 78.0743 17.952C78.5009 17.1627 78.7143 16.224 78.7143 15.136Z" fill="#EBE7E6"/>
<path d="M93.6818 0.320007V24H89.2018V0.320007H93.6818Z" fill="#EBE7E6"/>
</svg>
