<svg width="32" height="32" viewBox="0 0 32 32" fill="none" xmlns="http://www.w3.org/2000/svg">
<path d="M15 30.6V28.1C11.9555 27.7889 9.42222 26.6222 7.39999 24.6C5.37777 22.5778 4.2111 20.0445 3.89999 17H1.39999V15H3.89999C4.2111 11.9556 5.37777 9.42225 7.39999 7.40002C9.42222 5.3778 11.9555 4.21114 15 3.90002V1.40002H17V3.90002C20.0444 4.21114 22.5778 5.3778 24.6 7.40002C26.6222 9.42225 27.7889 11.9556 28.1 15H30.6V17H28.1C27.7889 20.0445 26.6222 22.5778 24.6 24.6C22.5778 26.6222 20.0444 27.7889 17 28.1V30.6H15ZM16 26.1334C18.7778 26.1334 21.1611 25.1389 23.15 23.15C25.1389 21.1611 26.1333 18.7778 26.1333 16C26.1333 13.2222 25.1389 10.8389 23.15 8.85002C21.1611 6.86114 18.7778 5.86669 16 5.86669C13.2222 5.86669 10.8389 6.86114 8.84999 8.85002C6.8611 10.8389 5.86666 13.2222 5.86666 16C5.86666 18.7778 6.8611 21.1611 8.84999 23.15C10.8389 25.1389 13.2222 26.1334 16 26.1334ZM16 21C14.6 21 13.4167 20.5167 12.45 19.55C11.4833 18.5834 11 17.4 11 16C11 14.6 11.4833 13.4167 12.45 12.45C13.4167 11.4834 14.6 11 16 11C17.4 11 18.5833 11.4834 19.55 12.45C20.5167 13.4167 21 14.6 21 16C21 17.4 20.5167 18.5834 19.55 19.55C18.5833 20.5167 17.4 21 16 21Z" fill="#EE3311"/>
</svg>
